<svg xmlns="http://www.w3.org/2000/svg" viewBox="0 0 15.818 15.811">
  <defs>
    <style>
      .cls-1 {
        fill: #003082;
      }
    </style>
  </defs>
  <g id="clock_1_" data-name="clock (1)" transform="translate(0 -0.168)">
    <g id="Group_53" data-name="Group 53" transform="translate(0 0.168)">
      <path id="Path_299" data-name="Path 299" class="cls-1" d="M15.187,4.994A7.75,7.75,0,0,0,10.976.8,7.774,7.774,0,0,0,7.9.168,7.694,7.694,0,0,0,4.826.8a7.775,7.775,0,0,0-4.2,4.195,7.9,7.9,0,0,0,0,6.15,7.791,7.791,0,0,0,4.2,4.2,7.694,7.694,0,0,0,3.07.631,7.777,7.777,0,0,0,3.079-.631,7.767,7.767,0,0,0,4.212-4.2,7.8,7.8,0,0,0,0-6.15Zm-1.263,6.565a6.939,6.939,0,0,1-2.543,2.534,6.812,6.812,0,0,1-3.485.934,6.7,6.7,0,0,1-2.7-.554,7.072,7.072,0,0,1-2.214-1.479,7.029,7.029,0,0,1-1.479-2.223A6.81,6.81,0,0,1,.96,8.065a6.8,6.8,0,0,1,.926-3.477A6.943,6.943,0,0,1,4.42,2.054,6.759,6.759,0,0,1,7.9,1.119a6.812,6.812,0,0,1,3.485.934,6.96,6.96,0,0,1,2.543,2.534,6.76,6.76,0,0,1,.934,3.477A6.825,6.825,0,0,1,13.925,11.559Z" transform="translate(0 -0.168)"/>
      <path id="Path_300" data-name="Path 300" class="cls-1" d="M288.07,115.886v-4.48a.5.5,0,0,0-.5-.484.488.488,0,0,0-.476.484v4.549a.4.4,0,0,1,.017.069.452.452,0,0,0,.13.389L289.826,119a.492.492,0,0,0,.666,0,.466.466,0,0,0,0-.675Z" transform="translate(-279.672 -108.058)"/>
    </g>
  </g>
</svg>
