<?xml version="1.0" encoding="utf-8"?>
<!-- Generator: Adobe Illustrator 22.1.0, SVG Export Plug-In . SVG Version: 6.00 Build 0)  -->
<svg version="1.1" id="Layer_1" xmlns="http://www.w3.org/2000/svg" xmlns:xlink="http://www.w3.org/1999/xlink" x="0px" y="0px"
	 viewBox="0 0 35 35" style="enable-background:new 0 0 35 35;" xml:space="preserve">
<style type="text/css">
	.st0{fill:#003082;}
</style>
<path id="download-arrow" class="st0" d="M21.9,18c0.2-0.2,0.2-0.5,0-0.7c-0.1-0.2-0.4-0.2-0.6-0.1c0,0,0,0-0.1,0.1L18,21V8.5
	C18,8.3,17.9,8,17.6,8c-0.3,0-0.5,0.1-0.5,0.4c0,0,0,0.1,0,0.1V21l-3.3-3.8c-0.1-0.2-0.4-0.2-0.6-0.1c0,0,0,0-0.1,0.1
	c-0.2,0.2-0.2,0.5,0,0.7l4.1,4.7c0.2,0.2,0.4,0.2,0.6,0.1c0,0,0,0,0.1-0.1L21.9,18z M25.2,21.4c0-0.3,0.2-0.5,0.5-0.5
	c0.3,0,0.5,0.3,0.5,0.5v5.1c0,0.3-0.2,0.5-0.5,0.5H9.5c-0.3,0-0.5-0.3-0.5-0.5v-5.1c0-0.3,0.2-0.5,0.5-0.5c0.3,0,0.5,0.3,0.5,0.5V26
	h15.2L25.2,21.4z"/>
</svg>
