<?xml version="1.0" encoding="utf-8"?>
<!-- Generator: Adobe Illustrator 23.0.0, SVG Export Plug-In . SVG Version: 6.00 Build 0)  -->
<svg version="1.1" id="Layer_1" xmlns="http://www.w3.org/2000/svg" xmlns:xlink="http://www.w3.org/1999/xlink" x="0px" y="0px"
	 viewBox="0 0 19.1 19.1" style="enable-background:new 0 0 19.1 19.1;" xml:space="preserve">
<style type="text/css">
	.st0{fill:none;}
	.st1{fill:#C2C1C3;}
	.st2{fill:#003082;}
</style>
<g>
	<path class="st0" d="M1.9,9.6c0,4.3,3.5,7.7,7.7,7.7c4.3,0,7.7-3.5,7.7-7.7s-3.5-7.7-7.7-7.7C5.3,1.9,1.9,5.3,1.9,9.6z M7.7,7.7
		h3.8v3.8H7.7V7.7z"/>
	<path class="st1" d="M1.9,9.6c0-4.3,3.5-7.7,7.7-7.7V1.1c-4.7,0-8.5,3.8-8.5,8.5S4.9,18,9.6,18v-0.7C5.3,17.3,1.9,13.8,1.9,9.6z"/>
	<path class="st2" d="M9.6,1.1v0.7c4.3,0,7.7,3.5,7.7,7.7s-3.5,7.7-7.7,7.7V18c4.7,0,8.5-3.8,8.5-8.5S14.3,1.1,9.6,1.1z"/>
</g>
</svg>
