<svg xmlns="http://www.w3.org/2000/svg" viewBox="0 0 9.783 9.781">
  <defs>
    <style>
      .cls-1, .cls-4 {
        fill: none;
      }

      .cls-1 {
        stroke: #003082;
        stroke-width: 0.8px;
      }

      .cls-2, .cls-5 {
        fill: #003082;
      }

      .cls-3, .cls-5 {
        stroke: none;
      }
    </style>
  </defs>
  <g id="Group_354" data-name="Group 354" transform="translate(-298.318 -15.428)">
    <g id="Group_351" data-name="Group 351" transform="translate(298.318 15.428)">
      <g id="Ellipse_23" data-name="Ellipse 23" class="cls-1">
        <circle class="cls-3" cx="4.891" cy="4.891" r="4.891"/>
        <circle class="cls-4" cx="4.891" cy="4.891" r="4.491"/>
      </g>
    </g>
    <g id="Group_353" data-name="Group 353" transform="translate(303.212 15.428)">
      <g id="Path_403" data-name="Path 403" class="cls-2" transform="translate(-3.786)">
        <path class="cls-3" d="M 5.322207450866699 9.308828353881836 C 4.788278579711914 7.575701236724854 4.688736915588379 7.251177310943604 4.678318500518799 7.214109420776367 C 4.668828964233398 7.174726963043213 4.607349872589111 6.969270706176758 3.986129522323608 4.943710803985596 L 3.986129522323608 4.838920593261719 L 3.986129522323608 0.2042104154825211 C 6.479763031005859 0.3092505931854248 8.475849151611328 2.371299028396606 8.475849151611328 4.890970230102539 C 8.475849151611328 6.834062576293945 7.301580429077148 8.471879005432129 5.322207450866699 9.308828353881836 Z"/>
        <path class="cls-5" d="M 4.186129570007324 0.4176654815673828 L 4.186129570007324 4.748530387878418 L 4.186129570007324 4.913721084594727 C 4.867396831512451 7.13508129119873 4.869493007659912 7.146407127380371 4.876909732818604 7.18695068359375 C 4.876049518585205 7.182250499725342 4.875779628753662 7.177530288696289 4.870609760284424 7.159090518951416 C 4.879909038543701 7.192232131958008 4.969361782073975 7.484058380126953 5.447013378143311 9.034623146057129 C 7.226993560791016 8.206241607666016 8.275849342346191 6.683323860168457 8.275849342346191 4.890970230102539 C 8.275849342346191 2.549460411071777 6.475114822387695 0.6207380294799805 4.186129570007324 0.4176654815673828 M 3.786129951477051 0 C 6.486649513244629 0 8.675849914550781 2.189760684967041 8.675849914550781 4.890970230102539 C 8.675849914550781 6.960080146789551 7.391339778900146 8.729110717773438 5.195189476013184 9.575820922851562 C 3.784869194030762 4.998200416564941 5.177249431610107 9.50946044921875 3.786129951477051 4.973690509796143 C 3.786129951477051 4.798681259155273 3.786129951477051 4.748526573181152 3.786129951477051 4.748526573181152 C 3.786129951477051 4.816326141357422 3.786129951477051 4.838923931121826 3.786129951477051 4.838923931121826 C 3.786129951477051 4.838923931121826 3.786129951477051 4.748523712158203 3.786129951477051 4.748526573181152 C 3.786129951477051 4.46848201751709 3.786129951477051 3.41698169708252 3.786129951477051 0 Z"/>
      </g>
    </g>
  </g>
</svg>
