<svg xmlns="http://www.w3.org/2000/svg" viewBox="0 0 16.328 15.582">
  <defs>
    <style>
      .cls-1 {
        fill: #003082;
        stroke: #003082;
        stroke-width: 0.5px;
      }
    </style>
  </defs>
  <path id="star_3_" data-name="star (3)" class="cls-1" d="M3.2,16.39a.283.283,0,0,1-.279-.331l.875-5.1L.086,7.344a.283.283,0,0,1,.157-.483l5.123-.744L7.657,1.475a.283.283,0,0,1,.254-.158h0a.282.282,0,0,1,.254.158l2.291,4.642,5.123.744a.283.283,0,0,1,.157.483l-3.707,3.614.875,5.1a.283.283,0,0,1-.411.3L7.91,13.95,3.328,16.358A.285.285,0,0,1,3.2,16.39ZM.892,7.339l3.4,3.317a.283.283,0,0,1,.081.251l-.8,4.683,4.206-2.211a.282.282,0,0,1,.264,0l4.206,2.211-.8-4.683a.283.283,0,0,1,.081-.251l3.4-3.317-4.7-.683a.283.283,0,0,1-.213-.155L7.91,2.24,5.807,6.5a.283.283,0,0,1-.213.155Z" transform="translate(0.254 -1.066)"/>
</svg>
