<?xml version="1.0" encoding="utf-8"?>
<!-- Generator: Adobe Illustrator 22.1.0, SVG Export Plug-In . SVG Version: 6.00 Build 0)  -->
<svg version="1.1" id="Layer_1" xmlns="http://www.w3.org/2000/svg" xmlns:xlink="http://www.w3.org/1999/xlink" x="0px" y="0px"
	 viewBox="0 0 35 35" style="enable-background:new 0 0 35 35;" xml:space="preserve">
<style type="text/css">
	.st0{fill:#06347E;stroke:#06347E;stroke-width:0.2;stroke-miterlimit:10;}
</style>
<g>
	<path class="st0" d="M28.3,13.8c-0.3-3.5-2.8-6-5.9-6c-2.1,0-3.9,1.1-5,2.9c-1-1.8-2.9-2.9-4.9-2.9c-3.1,0-5.6,2.6-5.9,6
		c0,0.2-0.1,1,0.2,2.3c0.5,1.9,1.5,3.7,3,5l7.6,6.9l7.7-6.9c1.5-1.4,2.6-3.1,3-5C28.4,14.8,28.3,13.9,28.3,13.8z M27.3,15.9
		c-0.4,1.8-1.4,3.4-2.8,4.6l-7.1,6.4l-7.1-6.4c-1.4-1.3-2.4-2.9-2.8-4.6c-0.3-1.3-0.2-2-0.2-2v0c0.3-3.1,2.4-5.3,5.1-5.3
		c2,0,3.7,1.2,4.5,3.1l0.4,0.9l0.4-0.9c0.8-1.9,2.6-3.1,4.7-3.1c2.7,0,4.8,2.2,5.1,5.3C27.4,13.9,27.6,14.7,27.3,15.9z"/>
</g>
</svg>
