<?xml version="1.0" encoding="utf-8"?>
<!-- Generator: Adobe Illustrator 22.1.0, SVG Export Plug-In . SVG Version: 6.00 Build 0)  -->
<svg version="1.1" id="Layer_1" xmlns="http://www.w3.org/2000/svg" xmlns:xlink="http://www.w3.org/1999/xlink" x="0px" y="0px"
	 viewBox="0 0 19.1 19.1" style="enable-background:new 0 0 19.1 19.1;" xml:space="preserve">
<style type="text/css">
	.st0{fill:#DB0029;}
</style>
<g>
	<path class="st0" d="M9.6,1.1c-4.7,0-8.5,3.8-8.5,8.5S4.9,18,9.6,18s8.5-3.8,8.5-8.5S14.3,1.1,9.6,1.1z M9.6,17.3
		c-4.3,0-7.7-3.5-7.7-7.7s3.5-7.7,7.7-7.7s7.7,3.5,7.7,7.7S13.9,17.3,9.6,17.3z"/>
</g>
<g>
	<path class="st0" d="M9.8,11.3C9.8,11.3,9.8,11.3,9.8,11.3c0.3,0,0.5-0.2,0.5-0.5V9.7v-2V5.9c0,0,0,0,0-0.1c0-0.3-0.2-0.4-0.5-0.4
		c0,0,0,0-0.1,0c-0.3,0-0.4,0.2-0.4,0.5v1.8v2v1.2c0,0,0,0,0,0.1C9.3,11.2,9.5,11.4,9.8,11.3z"/>
	<path class="st0" d="M9.8,12.7c-0.4,0-0.8,0.4-0.8,0.8s0.4,0.8,0.8,0.8s0.8-0.4,0.8-0.8S10.2,12.7,9.8,12.7z"/>
</g>
</svg>
