<?xml version="1.0" encoding="utf-8"?>
<!-- Generator: Adobe Illustrator 22.1.0, SVG Export Plug-In . SVG Version: 6.00 Build 0)  -->
<svg version="1.1" id="Layer_1" xmlns="http://www.w3.org/2000/svg" xmlns:xlink="http://www.w3.org/1999/xlink" x="0px" y="0px"
	 viewBox="0 0 19.1 19.1" style="enable-background:new 0 0 19.1 19.1;" xml:space="preserve">
<style type="text/css">
	.st0{fill:#003082;}
</style>
<g id="Group_348" transform="translate(19012.244 -20080.324)">
	<path id="download-arrow_1_" class="st0" d="M-18995.1,20091.6c0-0.3,0.2-0.5,0.5-0.5c0,0,0,0,0,0c0.3,0,0.5,0.2,0.5,0.5v5.1
		c0,0.3-0.2,0.5-0.5,0.5h-16.1c-0.3,0-0.5-0.3-0.5-0.5v-5.1c0-0.3,0.2-0.5,0.5-0.5c0,0,0,0,0,0c0.3,0,0.5,0.2,0.5,0.5v4.6h15.2
		V20091.6z"/>
	<g id="vinkje" transform="translate(-19008.604 20080.324)">
		<path id="Path_302" class="st0" d="M14.5,2.4c-0.2-0.2-0.4-0.2-0.6,0c0,0,0,0,0,0l-9.7,9.7L2.2,8C2,7.7,1.6,7.5,1.3,7.6
			c0,0-0.1,0-0.1,0.1C0.8,7.9,0.6,8.3,0.7,8.7c0,0,0,0.1,0.1,0.1L3.5,14l0,0L14.6,2.9C14.6,2.7,14.6,2.5,14.5,2.4z"/>
	</g>
</g>
</svg>
