<?xml version="1.0" encoding="utf-8"?>
<!-- Generator: Adobe Illustrator 23.1.1, SVG Export Plug-In . SVG Version: 6.00 Build 0)  -->
<svg version="1.1" id="Layer_1" xmlns="http://www.w3.org/2000/svg" xmlns:xlink="http://www.w3.org/1999/xlink" x="0px" y="0px"
	 viewBox="0 0 35 35" style="enable-background:new 0 0 35 35;" xml:space="preserve">
<style type="text/css">
	.st0{fill:#F90024;}
</style>
<g>
	<g>
		<polygon class="st0" points="17.4,27.4 25.2,20.3 27,17.9 27.8,15.5 27.8,13.1 26.8,10.7 25,8.8 21.6,8.3 18.1,9.7 17.3,12.6 
			16.6,9.6 13.4,8.3 9.8,9 7.3,12.4 6.6,14.9 7.3,16.7 9.5,20.3 		"/>
		<path class="st0" d="M17.4,27.5L17.4,27.5l-8-7.1l-2.2-3.7l-0.7-1.8l0.7-2.6l2.5-3.4l0,0l3.7-0.8l0,0l3.2,1.4l0,0l0.6,2.6l0.7-2.6
			l3.5-1.5l3.5,0.6l1.8,1.9l1.1,2.4l0,2.5L27.1,18l-1.8,2.4L17.4,27.5z M9.6,20.3l7.8,7l7.8-7l1.8-2.4l0.8-2.4v-2.4l-1-2.3L25,8.9
			l-3.4-0.6l-3.4,1.4L17.3,13l-0.7-3.3l-3.1-1.4L9.8,9.1l-2.4,3.3l-0.7,2.5l0.7,1.7L9.6,20.3z"/>
	</g>
	<g>
		<g>
			<path class="st0" d="M28.3,13.8c-0.3-3.5-2.8-6-5.9-6c-2.1,0-3.9,1.1-5,2.9c-1-1.8-2.9-2.9-4.9-2.9c-3.1,0-5.6,2.6-5.9,6
				c0,0.2-0.1,1,0.2,2.3c0.5,1.9,1.5,3.7,3,5l7.6,6.9l7.7-6.9c1.5-1.4,2.6-3.1,3-5C28.4,14.8,28.3,13.9,28.3,13.8z M27.3,15.9
				c-0.4,1.8-1.4,3.4-2.8,4.6l-7.1,6.4l-7.1-6.4c-1.4-1.3-2.4-2.9-2.8-4.6c-0.3-1.3-0.2-2-0.2-2l0,0c0.3-3.1,2.4-5.3,5.1-5.3
				c2,0,3.7,1.2,4.5,3.1l0.4,0.9l0.4-0.9c0.8-1.9,2.6-3.1,4.7-3.1c2.7,0,4.8,2.2,5.1,5.3C27.4,13.9,27.6,14.7,27.3,15.9z"/>
			<path class="st0" d="M17.4,28.1L17.4,28.1l-7.7-7c-1.4-1.2-2.5-3-3-5c-0.3-1.1-0.2-1.9-0.2-2.2c0-0.1,0-0.1,0-0.1
				c0.3-3.5,2.9-6.1,6-6.1c2,0,3.9,1.1,4.9,2.8c1.2-1.8,3-2.8,5-2.8c3.2,0,5.7,2.6,6,6.1v0c0,0,0,0,0,0.1c0,0.7,0,1.5-0.2,2.3
				c-0.4,1.8-1.4,3.6-3,5.1L17.4,28.1z M12.5,7.9c-3,0-5.5,2.5-5.8,5.9c0,0,0,0.1,0,0.1c0,0.3-0.1,1,0.2,2.2c0.5,2,1.6,3.7,3,4.9
				l7.5,6.8L25,21c1.6-1.5,2.6-3.2,3-4.9c0.2-0.8,0.2-1.5,0.2-2.2c0,0,0-0.1,0-0.1c-0.3-3.4-2.7-5.9-5.8-5.9c-2,0-3.8,1-4.9,2.9
				l-0.1,0.1l-0.1-0.2C16.3,9,14.5,7.9,12.5,7.9z M17.4,27L17.4,27l-7.2-6.5c-1.5-1.3-2.4-3-2.8-4.7c-0.3-1.3-0.2-2-0.2-2
				c0.3-3.2,2.4-5.4,5.2-5.4c2,0,3.8,1.2,4.6,3.2l0.3,0.7l0.3-0.7c0.8-1.9,2.7-3.2,4.8-3.2c2.8,0,4.9,2.2,5.2,5.4l0,0.1h0
				c0,0,0,0.1,0,0.2c0,0.3,0,1-0.2,1.7c-0.4,1.8-1.4,3.4-2.8,4.7L17.4,27z M12.4,8.7c-2.6,0-4.7,2.1-5,5.2c0,0-0.1,0.7,0.2,2
				c0.4,1.7,1.3,3.2,2.8,4.5l7,6.3l7-6.3c1.4-1.2,2.4-2.8,2.8-4.5l0,0c0.2-0.8,0.2-1.4,0.2-1.7c0-0.2,0-0.3,0-0.3
				c-0.3-3-2.4-5.2-5-5.2c-2.1,0-3.8,1.2-4.6,3l-0.5,1.1l-0.5-1.1C16,9.9,14.3,8.7,12.4,8.7z"/>
		</g>
	</g>
</g>
</svg>
